<?xml version="1.0" standalone="no"?>
<!DOCTYPE svg PUBLIC "-//W3C//DTD SVG 20010904//EN"
 "http://www.w3.org/TR/2001/REC-SVG-20010904/DTD/svg10.dtd">
<svg version="1.0" xmlns="http://www.w3.org/2000/svg"
 width="768.000000pt" height="600.000000pt" viewBox="0 0 768.000000 600.000000"
 preserveAspectRatio="xMidYMid meet">

<g transform="translate(0.000000,600.000000) scale(0.100000,-0.100000)"
fill="#000000" stroke="none">
<path d="M375 5783 c0 -164 -3 -217 -12 -220 -16 -6 -17 -58 -1 -86 14 -26 12
-145 -4 -202 -6 -22 -25 -55 -42 -73 -29 -32 -33 -34 -81 -27 -84 11 -92 13
-111 23 -18 10 -60 15 -96 13 -14 -1 -15 -6 -8 -33 5 -19 5 -102 -2 -198 -5
-91 -12 -419 -14 -729 -4 -501 -3 -562 11 -551 8 7 12 16 10 20 -3 5 -5 118
-5 252 0 218 1 244 17 255 11 9 55 13 128 13 l112 0 18 -40 c16 -36 17 -60 11
-256 -4 -120 -12 -228 -17 -240 -5 -16 -3 -35 8 -61 14 -33 15 -73 9 -300 -3
-144 -11 -284 -18 -312 -8 -38 -9 -60 0 -89 8 -26 10 -103 5 -251 -8 -267 -7
-265 -122 -256 -73 6 -78 5 -124 -24 l-47 -31 0 -255 c0 -277 -3 -261 53 -256
9 1 17 -3 17 -8 0 -10 -13 -15 -31 -13 -18 3 -15 -49 3 -65 19 -17 20 -17 35
2 8 12 12 31 9 47 -6 31 11 48 51 51 26 2 28 -1 34 -43 3 -25 9 -67 13 -95 12
-78 -2 -90 -103 -87 -63 2 -81 -1 -81 -11 0 -14 65 -27 137 -27 44 0 66 -36
74 -119 8 -90 2 -95 -118 -87 l-93 5 0 -50 0 -51 38 7 c70 13 187 17 279 10
l93 -7 0 -161 c2 -237 9 -307 46 -441 29 -104 61 -171 99 -206 23 -22 37 -25
113 -28 l87 -4 -3 -146 c-3 -129 -7 -158 -33 -240 -16 -51 -29 -94 -29 -97 0
-3 486 -5 1080 -5 l1081 0 -7 68 c-3 37 -7 73 -10 80 -2 7 8 17 22 22 24 9 25
13 19 52 -4 24 -21 94 -36 157 -16 63 -28 115 -27 116 2 0 29 -1 61 -3 61 -4
72 -16 32 -34 -23 -10 -23 -12 -7 -24 24 -18 192 -19 216 -1 18 13 18 15 1 47
-13 25 -19 68 -23 164 -3 81 -10 141 -18 158 -8 15 -14 54 -14 88 0 47 4 64
20 80 11 11 20 27 20 35 0 8 5 15 10 15 6 0 10 12 10 26 0 31 17 64 33 64 7 0
22 16 35 35 12 19 27 35 32 35 6 0 10 8 11 18 0 14 2 14 9 -3 8 -19 9 -19 9
-1 1 11 4 16 7 13 9 -8 -14 -89 -42 -152 -26 -58 -39 -125 -25 -125 5 0 12 8
15 18 3 9 23 79 45 155 22 75 49 158 61 183 23 53 24 58 10 49 -5 -3 -12 7
-15 22 -3 15 -10 40 -14 56 -8 24 -7 28 17 33 15 4 32 11 37 18 6 6 24 18 40
26 34 18 51 69 18 55 -10 -4 -25 -9 -33 -10 -37 -5 -70 -18 -70 -26 0 -15 -26
-10 -53 11 -14 11 -39 20 -57 20 -26 0 -33 -6 -45 -34 -15 -34 -22 -39 -82
-51 -17 -3 -37 -13 -44 -21 -6 -8 -20 -14 -31 -14 -10 0 -21 -6 -24 -14 -4 -9
-17 -12 -47 -9 -31 4 -46 1 -56 -11 -7 -9 -26 -16 -42 -16 -18 0 -29 -5 -29
-14 0 -21 -20 -25 -79 -15 -29 4 -58 7 -64 6 -6 -1 -18 26 -27 61 -14 51 -15
62 -4 62 8 0 14 4 14 10 0 5 -3 9 -7 9 -21 -3 -31 4 -49 36 -16 31 -17 37 -4
49 24 23 93 56 117 56 37 0 123 94 123 135 0 8 6 20 13 27 6 7 18 25 26 40 8
16 24 34 35 42 12 7 54 41 94 75 52 43 68 61 54 61 -25 0 -64 70 -51 91 5 8 9
24 9 37 0 13 6 22 15 22 18 0 20 26 3 33 -10 4 -9 8 2 16 24 17 95 13 150 -9
56 -22 74 -25 65 -11 -6 11 56 31 100 31 17 0 47 3 68 6 34 6 37 9 37 41 0 21
-6 36 -15 39 -8 4 -15 14 -15 24 0 29 -34 35 -255 50 -88 6 -177 16 -198 22
-28 9 -40 9 -49 0 -21 -21 -37 -13 -54 25 -14 34 -17 36 -24 18 -5 -11 -9 -37
-9 -57 -1 -20 -6 -40 -11 -43 -6 -4 -7 -12 -4 -18 5 -8 4 -9 -3 -2 -6 6 -48
102 -93 215 -45 113 -105 252 -133 310 l-51 105 -6 -75 c-6 -72 -30 -140 -50
-140 -26 0 60 -261 141 -427 l59 -122 0 -116 c0 -81 -5 -127 -15 -152 -8 -20
-18 -34 -20 -31 -3 3 -19 92 -36 198 -30 189 -31 194 -81 284 -92 166 -180
319 -265 459 -46 76 -102 173 -125 215 -22 43 -46 84 -53 92 -6 8 -26 39 -44
69 -59 98 -235 325 -306 396 -76 75 -189 145 -236 145 -21 0 -32 -7 -44 -30
-8 -16 -15 -34 -15 -40 0 -6 -13 -31 -29 -54 -27 -39 -28 -44 -14 -58 11 -12
12 -17 2 -23 -8 -5 -10 -4 -5 3 10 17 -138 16 -152 -1 -6 -6 -12 -28 -14 -47
l-3 -35 -99 -26 c-146 -39 -274 -108 -357 -192 -83 -83 -106 -137 -119 -281
-25 -255 -29 -317 -31 -411 -1 -62 -12 -155 -30 -247 -15 -81 -33 -195 -39
-255 -17 -166 -68 -537 -82 -595 -6 -27 -14 -38 -27 -38 -52 0 -63 75 -65 415
-1 227 2 369 19 1010 9 339 15 714 20 1375 7 682 17 1050 33 1090 5 14 12 160
16 325 4 165 9 315 13 333 l5 32 -43 0 -44 0 0 -217z m-120 -642 c30 -5 45
-15 63 -41 l23 -35 -3 -365 -3 -365 -25 -28 c-25 -29 -25 -29 -110 -22 -90 8
-133 23 -150 54 -6 12 -10 159 -10 391 -1 408 0 414 57 423 29 4 88 -1 158
-12z m2923 -2798 c-16 -2 -40 -2 -55 0 -16 2 -3 4 27 4 30 0 43 -2 28 -4z m90
-10 c-10 -2 -26 -2 -35 0 -10 3 -2 5 17 5 19 0 27 -2 18 -5z m-431 -120 c-3
-10 -5 -4 -5 12 0 17 2 24 5 18 2 -7 2 -21 0 -30z m-25 -215 c-7 -7 -12 -8
-12 -2 0 14 12 26 19 19 2 -3 -1 -11 -7 -17z m-32 -975 c12 -21 45 -69 73
-107 58 -78 65 -104 30 -117 -12 -5 -23 -13 -23 -19 0 -5 -13 -10 -30 -10
l-30 0 0 70 c0 50 -7 88 -25 136 -35 94 -33 112 5 47z m196 -228 c21 -14 33
-25 27 -25 -7 0 -13 -7 -13 -15 0 -19 -44 -20 -59 -1 -9 11 -9 20 -2 35 7 13
8 22 1 26 -5 3 -10 12 -10 18 0 8 3 8 9 -1 4 -8 26 -24 47 -37z"/>
<path d="M2217 5968 c-7 -46 -3 -84 11 -101 10 -11 7 -16 -14 -26 -14 -6 -30
-9 -34 -6 -14 9 -70 -24 -70 -40 0 -21 -13 -19 -28 5 -14 24 -32 26 -32 5 0
-23 -38 -18 -51 7 -11 20 -13 20 -24 5 -7 -9 -17 -17 -24 -17 -6 0 -11 -6 -11
-13 0 -7 -9 -19 -20 -27 -11 -8 -20 -18 -20 -22 0 -4 -9 -17 -21 -29 -12 -12
-19 -31 -18 -47 7 -90 -10 -122 -65 -122 -17 0 -37 -5 -43 -11 -15 -15 -33 41
-33 106 0 41 5 56 23 73 13 12 30 22 38 22 30 0 40 15 30 42 -9 24 -13 25 -45
18 -28 -6 -52 -2 -104 15 -73 26 -138 40 -247 55 -38 5 -79 12 -90 14 -11 3
-28 -1 -37 -8 -14 -10 -18 -36 -21 -157 -2 -79 -9 -206 -16 -281 -9 -98 -9
-143 -2 -157 7 -13 11 -151 11 -404 0 -320 -3 -392 -15 -428 -9 -26 -18 -94
-21 -168 -2 -70 -9 -130 -16 -138 -20 -25 9 -60 55 -67 23 -4 46 -10 52 -15 5
-4 51 -14 100 -21 50 -7 106 -16 125 -21 48 -12 200 -11 200 1 0 6 5 10 10 10
6 0 10 -7 10 -16 0 -11 6 -15 19 -11 17 4 17 0 -5 -67 -23 -72 -32 -98 -65
-173 -23 -52 -23 -57 -4 -49 8 3 15 0 15 -7 0 -7 17 -21 37 -32 21 -11 57 -35
80 -52 24 -18 45 -33 48 -33 3 0 33 -22 68 -48 34 -27 106 -77 160 -113 73
-48 97 -68 93 -82 -2 -10 0 -14 6 -11 6 4 18 -3 28 -16 l17 -22 32 51 c18 28
46 61 62 72 l29 20 68 -30 c82 -37 183 -62 218 -52 l25 6 -22 29 c-12 16 -36
34 -54 41 -17 8 -37 26 -45 40 -13 25 -13 28 5 41 16 12 21 12 40 -6 12 -11
29 -20 38 -20 9 0 19 -4 22 -10 3 -5 17 -10 30 -10 17 0 27 9 37 31 8 18 26
36 46 45 39 16 38 36 -4 45 -87 20 -135 58 -127 102 5 28 37 39 45 15 6 -18
146 -17 158 2 7 10 5 18 -5 26 -14 10 -14 12 0 18 8 3 15 12 15 19 0 8 7 21
17 28 15 13 16 11 10 -13 -10 -37 9 -45 38 -18 28 26 23 44 -9 36 -19 -5 -20
-4 -3 8 10 8 15 20 11 30 -5 12 -20 16 -65 16 -47 0 -63 5 -86 24 -25 22 -26
27 -15 45 18 30 15 34 -15 26 -16 -3 -44 -22 -63 -40 -36 -34 -90 -62 -90 -46
0 5 6 12 13 14 6 3 -2 6 -19 6 -62 2 -94 13 -94 32 0 12 -7 19 -19 19 -10 0
-24 6 -30 14 -7 8 -42 17 -84 21 -85 9 -99 22 -91 81 4 29 0 51 -14 80 -14 27
-20 59 -20 104 0 36 -2 70 -3 75 -3 15 16 57 40 84 23 26 26 37 12 45 -13 9
-1 89 15 102 8 6 14 18 14 27 0 8 12 25 26 36 29 23 94 29 94 9 1 -8 6 -6 14
4 7 10 16 15 19 11 4 -3 7 3 7 15 0 23 33 32 45 12 11 -17 31 -11 42 13 5 12
11 51 12 87 2 35 5 68 7 72 9 15 94 9 100 -7 7 -17 35 -15 58 4 8 7 32 12 53
10 21 -2 50 3 66 11 27 13 45 50 33 69 -3 5 -1 11 5 13 6 2 1 14 -12 28 -18
21 -51 82 -54 100 0 3 -11 27 -24 53 -23 47 -23 47 -41 27 -17 -20 -36 -21
-72 -5 -31 13 -19 25 20 21 l37 -5 -32 17 c-18 8 -33 22 -33 29 0 7 -5 13 -11
13 -5 0 -7 5 -4 11 5 7 13 5 24 -5 19 -17 43 -21 55 -8 8 7 13 8 42 11 10 0
14 7 11 15 -3 8 2 20 11 28 13 11 14 11 8 0 -5 -8 -1 -21 9 -32 16 -18 16 -20
2 -26 -9 -3 -21 -3 -27 1 -18 11 -10 -9 15 -38 14 -16 34 -29 44 -30 11 0 17
-5 15 -9 -3 -4 1 -8 9 -8 8 0 17 -7 21 -15 3 -8 13 -15 22 -15 10 0 14 -5 11
-14 -3 -8 0 -17 7 -19 17 -7 56 -86 56 -113 0 -11 5 -25 11 -31 7 -7 13 -32
13 -57 1 -25 5 -48 8 -52 4 -3 4 -21 1 -39 -5 -29 -1 -38 25 -62 l31 -28 3
-210 3 -210 -27 -46 c-16 -25 -29 -58 -30 -73 -2 -24 -4 -25 -15 -10 -12 17
-11 53 2 74 3 5 -2 10 -12 11 -14 0 -15 2 -3 7 34 16 70 45 70 58 0 17 1 17
-39 3 -19 -7 -38 -24 -48 -43 -9 -17 -27 -44 -40 -61 -21 -24 -24 -37 -20 -73
2 -23 8 -46 11 -50 10 -9 41 13 41 29 0 33 21 14 38 -34 19 -56 25 -142 13
-193 -9 -39 0 -43 142 -53 92 -7 105 -10 130 -35 l29 -27 31 30 c52 48 38 91
-29 91 -45 0 -44 -4 -59 160 -7 69 -18 146 -26 171 -18 60 -31 619 -17 696 6
31 6 57 1 67 -5 9 -11 73 -13 141 -2 69 -9 141 -15 160 -11 34 -9 93 5 162 6
28 4 33 -26 49 -57 29 -153 50 -278 60 -83 7 -101 -3 -101 -57 0 -35 25 -95
43 -102 18 -7 27 -40 17 -58 -6 -9 -12 -10 -22 -2 -20 17 -70 14 -64 -4 9 -22
-18 -26 -59 -9 -33 14 -35 17 -22 31 11 10 25 13 46 9 35 -7 39 1 14 25 -10 9
-19 25 -21 36 -2 18 -2 18 8 3 6 -10 18 -18 26 -18 9 0 29 -13 46 -30 32 -32
38 -35 38 -20 0 16 -61 80 -76 80 -8 0 -14 5 -14 11 0 6 -11 8 -27 5 -16 -3
-32 -3 -38 2 -12 8 -17 74 -5 67 5 -3 7 1 6 9 -3 19 -32 46 -50 46 -8 0 -18 5
-21 10 -3 6 -17 7 -30 4 -24 -6 -46 13 -27 25 7 4 6 12 -3 25 -10 13 -21 17
-39 12 -21 -5 -26 -3 -26 12 0 10 -5 23 -11 29 -31 31 19 56 63 32 32 -17 48
6 22 31 -17 17 -23 18 -51 8 -24 -9 -37 -9 -55 0 -13 7 -15 10 -6 8 21 -6 42
18 34 39 -8 21 -29 19 -44 -5 -7 -11 -21 -20 -33 -20 -13 0 -23 -10 -30 -30
-12 -34 -10 -33 -43 -20 -17 6 -24 14 -20 25 4 10 -3 18 -22 25 -32 12 -54 39
-47 57 4 9 9 9 23 0 11 -6 22 -8 26 -4 11 10 -28 49 -43 43 -7 -3 -15 -1 -18
3 -6 11 20 33 28 24 4 -3 7 24 7 60 l0 67 -39 0 c-36 0 -39 -2 -44 -32z m225
-273 c0 -5 -5 -11 -11 -13 -6 -2 -11 4 -11 13 0 9 5 15 11 13 6 -2 11 -8 11
-13z m208 -235 c0 -5 -5 -10 -11 -10 -5 0 -7 5 -4 10 3 6 8 10 11 10 2 0 4 -4
4 -10z m-874 -655 c20 -17 -11 -94 -38 -95 -10 0 -11 94 -2 103 8 8 25 5 40
-8z m-45 -208 c-10 -9 -11 -8 -5 6 3 10 9 15 12 12 3 -3 0 -11 -7 -18z m217
-66 c12 -10 22 -27 22 -37 0 -14 -6 -11 -32 15 -23 23 -39 31 -55 28 -13 -2
-23 0 -23 4 0 17 67 9 88 -10z m-20 -56 c-4 -18 0 -26 13 -30 29 -9 23 -35 -7
-35 -54 0 -90 -40 -79 -90 7 -33 51 -55 102 -52 19 2 33 -2 33 -9 0 -7 -9 -9
-25 -5 -30 8 -32 -7 -5 -34 37 -37 86 -16 52 22 -12 15 -13 20 -1 34 7 9 18
26 24 38 6 11 21 22 33 24 20 3 22 -1 22 -36 0 -21 -3 -67 -6 -101 -6 -50 -10
-61 -25 -61 -11 0 -19 4 -19 8 0 5 -14 7 -30 4 -22 -3 -30 -1 -28 9 2 9 -14
15 -52 20 -43 6 -59 13 -77 36 -13 15 -23 33 -23 38 1 6 7 2 14 -7 14 -19 41
-24 50 -10 6 10 -30 52 -44 52 -15 0 -12 70 6 131 19 64 30 79 56 79 16 0 19
-5 16 -25z m-111 -137 c-3 -8 -6 -5 -6 6 -1 11 2 17 5 13 3 -3 4 -12 1 -19z
m128 -8 c3 -6 -1 -13 -9 -16 -9 -3 -16 -13 -16 -22 0 -15 -2 -15 -15 -1 -9 9
-13 23 -9 32 7 19 39 23 49 7z m799 -549 c12 -10 30 -22 41 -25 11 -3 -7 -4
-41 -2 -53 3 -104 21 -104 36 0 3 19 6 42 7 30 2 48 -3 62 -16z m-800 -117 c7
-19 -9 -50 -33 -64 -15 -8 -22 -5 -35 15 -9 13 -16 33 -16 45 0 17 6 20 39 20
26 0 41 -5 45 -16z"/>
<path d="M2825 5958 c7 -24 18 -42 25 -40 7 1 32 -5 56 -14 42 -16 44 -19 44
-56 0 -38 17 -68 39 -68 6 0 11 -9 11 -20 0 -17 7 -20 40 -20 22 0 40 5 40 10
0 6 9 10 20 10 13 0 20 7 20 20 0 11 4 20 10 20 5 0 18 9 28 21 11 11 26 20
33 19 38 -6 42 -1 36 43 -4 23 -11 59 -17 80 l-11 37 -193 0 -194 0 13 -42z"/>
<path d="M3860 5905 c0 -59 -4 -95 -10 -95 -6 0 -10 -6 -8 -14 2 -8 -9 -25
-25 -40 -20 -18 -26 -32 -22 -48 22 -95 37 -345 23 -365 -6 -7 -2 -24 9 -45
16 -29 18 -61 19 -273 1 -132 4 -276 8 -320 5 -54 4 -90 -4 -110 -11 -29 -15
-459 -5 -560 3 -22 7 -86 11 -142 6 -92 5 -105 -14 -137 -20 -33 -21 -52 -22
-242 -1 -113 0 -207 2 -209 2 -2 22 31 45 73 l42 77 -11 250 c-5 138 -10 297
-11 355 0 58 -1 161 -1 230 0 69 1 175 4 235 6 124 6 267 2 845 -2 223 0 456
4 518 7 110 6 112 -15 112 -20 0 -21 -5 -21 -95z"/>
<path d="M4327 5923 c4 -85 28 -232 45 -275 11 -31 46 -42 113 -36 l40 3 0
165 c0 91 -3 177 -8 193 -7 27 -7 27 -101 27 l-93 0 4 -77z"/>
<path d="M1089 5916 c16 -19 55 -22 49 -3 -3 6 -17 14 -33 15 -25 3 -27 2 -16
-12z"/>
<path d="M1795 5880 c-4 -17 -5 -34 -2 -36 2 -3 7 10 11 27 8 42 0 50 -9 9z"/>
<path d="M3291 5869 c-16 -26 -17 -35 -8 -50 7 -11 17 -19 24 -19 7 0 13 -4
13 -10 0 -5 7 -10 15 -10 13 0 19 11 17 31 -1 3 10 12 23 19 30 16 31 31 7 53
-31 28 -70 21 -91 -14z"/>
<path d="M0 5588 c1 -31 1 -32 15 -13 17 21 15 37 -3 43 -8 2 -12 -8 -12 -30z"/>
<path d="M2646 5593 c-11 -11 -6 -23 9 -23 8 0 15 4 15 9 0 13 -16 22 -24 14z"/>
<path d="M4379 5169 c-8 -16 -10 -56 -6 -137 4 -63 8 -117 11 -119 2 -3 19 2
38 11 18 8 55 18 81 22 46 6 48 8 42 34 -3 15 -7 55 -9 88 -4 83 -22 103 -103
117 -37 6 -43 4 -54 -16z"/>
<path d="M2895 4980 c3 -5 8 -10 11 -10 2 0 4 5 4 10 0 6 -5 10 -11 10 -5 0
-7 -4 -4 -10z"/>
<path d="M2943 4941 c-6 -10 -8 -23 -3 -30 5 -9 10 -4 14 14 9 34 4 40 -11 16z"/>
<path d="M4445 4900 c-22 -5 -53 -11 -68 -14 -47 -8 -129 -37 -180 -63 -68
-34 -120 -84 -144 -140 -29 -67 -103 -386 -103 -446 0 -19 11 -30 54 -51 47
-24 58 -36 85 -89 17 -34 31 -67 31 -73 0 -6 19 -10 43 -11 67 0 159 -24 200
-51 37 -25 37 -25 37 -94 0 -64 3 -72 29 -99 16 -16 37 -29 46 -29 9 0 14 -4
11 -9 -8 -12 67 -43 95 -39 18 2 31 -6 51 -32 27 -35 37 -80 18 -80 -5 0 -10
5 -10 12 0 6 -8 4 -19 -6 -15 -14 -24 -15 -39 -7 -11 6 -22 8 -25 5 -3 -3 -14
-1 -25 5 -15 8 -23 6 -36 -8 -9 -9 -16 -23 -16 -29 0 -7 -4 -12 -9 -12 -5 0
-12 -13 -16 -29 -3 -16 -17 -41 -30 -55 -13 -14 -19 -26 -12 -26 7 0 6 -4 -3
-10 -12 -8 -12 -10 -1 -10 8 0 11 -3 7 -7 -3 -4 -25 -6 -48 -4 -45 2 -77 30
-78 69 0 23 -24 31 -35 11 -4 -6 -7 -25 -8 -44 -1 -29 -3 -31 -13 -17 -7 9 -8
18 -3 20 13 5 11 32 -2 32 -7 0 -9 11 -5 30 3 17 1 30 -4 30 -6 0 -10 -7 -10
-15 0 -8 -4 -15 -10 -15 -5 0 -10 9 -10 20 0 11 -4 20 -9 20 -5 0 -12 14 -16
30 -4 17 -13 30 -21 30 -9 0 -14 11 -14 31 0 27 -3 30 -27 27 -19 -2 -27 -8
-25 -18 2 -8 4 -30 5 -47 1 -19 6 -33 13 -33 7 0 10 9 7 23 -4 19 -3 20 7 5 6
-10 10 -24 8 -30 -3 -19 24 -88 33 -82 7 4 29 -72 31 -106 0 -8 6 -22 12 -30
26 -35 36 -62 36 -99 0 -34 4 -40 30 -49 23 -8 29 -16 27 -34 -1 -17 3 -22 23
-23 22 0 25 -4 22 -31 -2 -19 3 -36 12 -44 13 -10 16 -10 16 4 0 9 -6 16 -12
16 -21 0 29 30 61 36 23 5 32 2 43 -15 7 -12 20 -21 30 -21 12 0 19 -12 24
-45 6 -45 20 -58 30 -30 4 8 13 15 21 15 10 0 12 6 8 20 -5 16 4 25 58 51 57
28 67 38 91 86 15 30 22 52 16 48 -14 -9 -52 4 -45 16 8 12 -28 -2 -37 -15 -5
-7 -8 -7 -8 2 0 6 -6 12 -13 12 -8 0 -19 11 -25 25 -11 23 -10 25 16 26 22 1
20 3 -13 10 -22 5 -43 16 -48 24 -4 8 -15 15 -24 15 -9 0 -14 3 -11 6 6 5 -25
59 -51 90 -10 12 6 36 34 51 17 9 26 4 57 -27 34 -34 35 -38 17 -43 -45 -12
35 -87 93 -87 22 0 53 36 36 43 -7 3 -4 6 8 6 27 1 56 31 30 31 -17 0 -106 37
-106 44 0 2 35 4 78 4 122 2 131 4 125 18 -3 9 -11 10 -30 3 -19 -7 -30 -5
-50 11 -14 11 -43 23 -65 26 -66 11 -43 26 29 18 59 -6 65 -5 60 10 -4 9 -2
16 3 16 18 0 11 26 -13 52 -31 34 -62 49 -81 42 -18 -7 -46 12 -46 31 0 14 70
110 120 164 30 32 32 33 44 15 6 -11 25 -52 41 -92 29 -75 46 -92 87 -91 19 0
16 3 -13 15 -40 17 -59 48 -59 99 0 33 1 34 30 28 25 -4 29 -3 24 10 -4 12 5
19 35 28 23 7 41 18 41 26 0 7 -4 13 -10 13 -5 0 -10 7 -10 15 0 20 88 20 135
1 40 -17 45 -40 19 -102 -25 -60 -63 -104 -108 -126 l-41 -19 35 6 c53 10 71
26 113 96 21 35 48 76 60 92 26 34 18 44 -54 63 -52 13 -52 13 -12 10 l43 -4
-37 44 c-20 25 -41 43 -47 41 -5 -2 -10 -20 -9 -40 0 -39 -6 -42 -57 -28 l-25
7 25 7 c38 11 7 24 -70 30 -57 3 -69 1 -97 -20 l-33 -24 0 24 c0 21 -10 28
-77 52 -71 26 -89 28 -212 27 -125 0 -138 1 -183 25 -26 14 -48 30 -48 35 0 6
-7 8 -15 5 -8 -4 -23 5 -34 20 -27 33 -14 58 36 70 48 11 71 53 74 137 3 73
20 142 40 161 13 13 24 14 70 5 30 -6 79 -22 109 -34 86 -37 93 -39 124 -43
16 -3 52 -14 80 -25 28 -11 74 -20 102 -21 57 0 127 20 119 34 -4 5 -2 9 2 9
5 0 17 6 28 13 17 13 17 15 0 44 -10 17 -35 42 -56 54 -21 13 -39 27 -39 31 0
4 -12 14 -27 22 -21 11 -23 15 -10 16 10 0 15 5 12 10 -15 25 13 7 37 -24 29
-36 88 -83 88 -69 0 7 -22 33 -121 141 -35 37 -44 42 -82 41 -23 0 -66 8 -96
19 -46 17 -51 21 -32 27 20 6 19 8 -16 26 -20 10 -45 19 -55 19 -24 0 -23 4 7
36 14 15 22 31 17 36 -5 5 -37 11 -73 14 -35 4 -72 10 -81 15 -9 5 -18 9 -20
8 -2 -1 -21 -5 -43 -9z m154 -64 c10 -12 8 -13 -8 -9 -12 3 -21 9 -21 14 0 14
16 11 29 -5z m276 -216 c3 -8 -6 -3 -22 11 -15 15 -40 34 -55 44 -16 9 -28 21
-28 26 0 13 97 -62 105 -81z m26 33 c13 -16 12 -17 -3 -4 -10 7 -18 15 -18 17
0 8 8 3 21 -13z m-391 -779 c0 4 13 0 30 -9 33 -17 96 -20 134 -5 33 12 35 -9
5 -51 -33 -47 -73 -62 -143 -55 -81 8 -106 26 -106 74 0 20 3 47 6 60 l6 22
34 -21 c19 -11 34 -18 34 -15z m690 12 c0 -3 -4 -8 -10 -11 -5 -3 -10 -1 -10
4 0 6 5 11 10 11 6 0 10 -2 10 -4z m-753 -478 c-3 -7 -5 -2 -5 12 0 14 2 19 5
13 2 -7 2 -19 0 -25z"/>
<path d="M2937 4855 c6 -27 30 -52 40 -41 4 4 2 16 -5 26 -10 16 -10 20 0 21
7 0 4 4 -7 9 -30 13 -33 12 -28 -15z"/>
<path d="M4680 4840 c0 -5 5 -10 11 -10 5 0 7 5 4 10 -3 6 -8 10 -11 10 -2 0
-4 -4 -4 -10z"/>
<path d="M3365 4559 c-9 -14 -2 -20 14 -10 8 6 9 11 3 15 -6 3 -14 1 -17 -5z"/>
<path d="M2600 4385 c0 -10 10 -15 29 -15 33 0 96 -39 96 -60 0 -12 -16 -15
-70 -16 -92 -1 -152 -12 -171 -31 -13 -14 -13 -17 2 -34 9 -11 23 -19 30 -19
8 0 20 -13 29 -29 8 -17 31 -42 50 -56 56 -43 205 -53 205 -14 0 4 13 12 30
17 33 12 71 66 63 89 -3 8 -1 18 6 22 8 6 8 15 0 40 -9 27 -26 39 -100 76 -73
37 -98 45 -144 45 -42 0 -55 -3 -55 -15z m115 -135 c3 -5 1 -10 -4 -10 -6 0
-11 5 -11 10 0 6 2 10 4 10 3 0 8 -4 11 -10z m-21 -36 c9 -3 16 -10 16 -14 0
-10 -38 -1 -46 11 -6 10 7 12 30 3z"/>
<path d="M3933 4162 c-25 -4 -45 -56 -36 -92 4 -17 8 -18 20 -8 8 6 21 24 29
40 18 35 32 36 44 3 8 -20 5 -29 -15 -51 -32 -34 -40 -61 -23 -81 11 -14 14
-13 18 13 4 20 12 30 28 32 16 3 20 -1 16 -11 -3 -8 -1 -18 5 -22 14 -8 15 69
1 93 -5 9 -14 29 -20 44 -10 31 -35 46 -67 40z"/>
<path d="M4030 3920 c0 -5 5 -10 11 -10 5 0 7 5 4 10 -3 6 -8 10 -11 10 -2 0
-4 -4 -4 -10z"/>
<path d="M4029 3799 c-12 -8 -11 -12 5 -24 26 -20 36 -19 36 4 0 22 -21 33
-41 20z"/>
<path d="M4130 3700 c0 -5 5 -10 10 -10 6 0 10 5 10 10 0 6 -4 10 -10 10 -5 0
-10 -4 -10 -10z"/>
<path d="M2680 3652 c0 -14 79 -44 102 -39 20 4 19 4 -4 6 -16 0 -28 6 -28 11
0 6 -9 10 -20 10 -11 0 -20 5 -20 10 0 6 -7 10 -15 10 -8 0 -15 -4 -15 -8z"/>
<path d="M3322 3515 c5 -118 4 -125 -17 -145 -12 -11 -24 -17 -28 -14 -11 12
-139 26 -269 31 -127 4 -128 4 -154 -22 l-25 -25 3 -369 c1 -203 5 -368 9
-366 3 2 18 36 33 74 27 69 82 161 128 212 22 26 200 124 265 146 l30 11 2 98
c2 103 14 141 52 168 17 12 20 20 14 43 -4 15 -6 85 -5 156 2 125 2 127 -20
127 -23 0 -23 -1 -18 -125z"/>
<path d="M5306 3580 c-3 -14 -7 -122 -8 -240 -2 -242 8 -310 49 -329 22 -10
23 -9 23 27 -1 39 -15 273 -26 427 -3 50 -12 101 -19 115 l-13 25 -6 -25z"/>
<path d="M4050 3314 c0 -3 26 -34 58 -70 46 -52 63 -64 87 -64 30 0 30 1 -12
22 -23 12 -41 24 -40 27 3 8 -76 91 -85 91 -5 0 -8 -3 -8 -6z"/>
<path d="M2281 3203 c-1 -23 3 -44 7 -47 4 -2 6 12 4 32 -5 56 -10 62 -11 15z"/>
<path d="M6601 3098 c1 -13 5 -34 9 -48 7 -20 8 -16 9 23 1 26 -3 47 -9 47 -5
0 -10 -10 -9 -22z"/>
<path d="M5860 3085 c-11 -28 -12 -400 -1 -450 l6 -30 87 -3 88 -3 -5 28 c-2
15 -9 109 -15 208 -17 272 -12 258 -97 270 -51 7 -53 6 -63 -20z"/>
<path d="M6621 2970 c0 -33 1 -34 11 -12 8 17 8 26 0 34 -9 9 -12 4 -11 -22z"/>
<path d="M6627 2758 c3 -146 6 -174 19 -176 39 -9 40 0 19 174 -12 92 -25 169
-31 171 -7 2 -9 -56 -7 -169z"/>
<path d="M5366 2214 c-60 -181 -126 -383 -148 -449 -21 -66 -44 -129 -50 -140
-6 -11 -12 -29 -14 -41 -1 -12 -13 -39 -27 -61 -16 -26 -24 -49 -20 -62 3 -13
-1 -29 -10 -39 -9 -10 -23 -35 -32 -56 l-16 -38 -47 44 c-47 44 -120 94 -127
87 -2 -2 8 -23 22 -46 18 -31 32 -43 48 -43 31 0 95 -77 95 -113 0 -22 -6 -28
-41 -37 -36 -10 -44 -9 -63 8 -11 11 -37 28 -56 37 -37 19 -71 45 -135 104
-33 31 -65 48 -105 55 -3 1 -11 5 -18 9 -7 5 -38 10 -70 12 -72 3 -123 25
-141 58 -8 15 -18 24 -23 21 -4 -3 -9 0 -9 5 -5 42 -17 51 -67 51 -29 0 -59
-8 -80 -20 -37 -23 -62 -26 -63 -7 -2 23 -17 -38 -18 -72 -1 -22 8 -46 24 -66
13 -18 32 -52 41 -76 10 -24 18 -45 19 -47 2 -2 24 3 50 9 33 8 61 25 88 52
l40 40 52 -27 c59 -29 79 -31 150 -13 76 19 117 9 173 -43 27 -25 61 -55 76
-68 15 -13 26 -25 24 -27 -1 -2 -37 1 -78 5 -41 5 -120 9 -175 10 -102 1 -185
14 -195 31 -9 13 -122 15 -252 5 -122 -10 -143 -18 -113 -40 84 -65 215 -111
305 -107 55 2 121 -9 115 -20 -4 -5 -24 -9 -46 -9 -55 0 -40 -18 22 -26 27 -4
52 -11 55 -15 3 -5 20 -9 38 -9 17 0 36 -4 42 -9 5 -5 43 -19 84 -30 55 -14
79 -17 94 -9 15 8 22 6 35 -11 13 -17 23 -20 54 -14 28 4 37 10 33 20 -4 10 0
13 12 11 18 -4 20 -31 7 -116 -5 -34 -10 -42 -27 -42 -11 0 -102 27 -202 59
-99 33 -271 88 -381 121 -253 78 -533 166 -609 190 -32 11 -62 17 -66 15 -15
-9 2 -43 28 -55 65 -31 187 -80 199 -80 7 0 32 -8 56 -19 57 -25 88 -36 182
-61 104 -29 506 -159 615 -200 145 -54 256 -69 381 -51 66 9 75 9 87 -7 7 -9
23 -16 35 -14 15 2 39 -13 72 -43 28 -25 67 -50 88 -57 28 -8 45 -22 63 -53
23 -41 31 -45 77 -46 27 -1 155 34 185 50 12 6 22 21 22 32 0 11 -5 17 -10 14
-6 -3 -13 0 -16 8 -3 8 -19 17 -36 21 -21 4 -28 10 -24 21 3 8 -1 18 -9 22 -7
5 -26 26 -40 48 -30 44 -27 59 18 85 20 11 31 12 44 4 15 -10 80 -120 99 -167
5 -13 18 -17 55 -17 26 0 51 -4 54 -10 9 -14 52 -13 61 2 4 6 8 56 9 110 1 79
-1 98 -12 94 -24 -10 -43 6 -43 35 0 19 -5 29 -15 29 -10 0 -15 10 -15 29 0
16 7 34 15 41 17 14 20 40 5 40 -6 0 -24 13 -40 29 -21 19 -30 38 -30 60 0 35
-5 38 -26 16 -9 -8 -33 -15 -55 -15 -32 0 -39 3 -39 20 0 13 -7 20 -20 20 -11
0 -20 -6 -20 -14 0 -7 -13 -16 -30 -20 -21 -4 -30 -11 -30 -26 0 -16 -7 -20
-30 -20 -28 0 -30 2 -30 40 l0 40 -40 0 -40 0 0 -40 0 -40 -70 0 c-63 0 -70
-2 -70 -20 0 -11 -4 -20 -10 -20 -5 0 -10 -9 -10 -20 0 -13 -7 -20 -20 -20
-13 0 -20 7 -20 20 0 13 -7 20 -20 20 -19 0 -20 7 -20 160 0 153 -1 160 -20
160 -13 0 -20 7 -20 20 0 11 -7 20 -15 20 -12 0 -14 7 -9 28 13 51 22 77 23
65 1 -7 10 -13 22 -13 15 0 19 4 15 16 -3 9 -6 19 -6 22 0 4 -5 0 -10 -8 -16
-25 -12 7 11 85 11 39 25 93 30 120 6 28 15 56 21 63 6 7 14 29 18 50 5 20 22
78 39 127 17 50 45 137 62 195 17 58 36 109 40 115 5 5 9 17 9 27 0 22 34 137
57 190 8 20 13 42 11 49 -2 7 -53 -136 -112 -317z m-242 -879 c-4 -10 0 -15
15 -15 12 0 21 -4 21 -10 0 -5 -11 -10 -24 -10 -13 0 -26 -6 -29 -12 -2 -7 -7
-10 -10 -7 -8 7 15 69 25 69 4 0 5 -7 2 -15z m-53 -142 c-9 -15 -10 -14 -7 7
3 14 6 34 7 45 1 14 3 12 6 -7 2 -15 0 -35 -6 -45z m-74 -38 c0 -17 0 -17 -21
-9 -22 8 -20 24 2 24 10 0 19 -7 19 -15z m40 -47 c-3 -8 -6 -5 -6 6 -1 11 2
17 5 13 3 -3 4 -12 1 -19z m558 -508 c8 -13 -5 -13 -25 0 -13 8 -13 10 2 10 9
0 20 -4 23 -10z"/>
<path d="M3195 2106 c-17 -6 -44 -21 -62 -33 -17 -13 -38 -23 -47 -23 -9 0
-16 -7 -16 -15 0 -21 13 -19 77 15 31 17 64 30 74 30 11 0 19 6 19 14 0 21
-11 24 -45 12z"/>
<path d="M3288 2033 c-17 -41 -48 -63 -89 -63 -23 0 -39 -6 -43 -15 -3 -8 -12
-15 -21 -15 -8 0 -15 -5 -15 -10 0 -14 44 -30 80 -30 29 0 200 43 220 55 15 9
13 58 -2 52 -16 -5 -60 16 -77 37 -20 24 -40 19 -53 -11z"/>
<path d="M3454 1997 c3 -10 6 -78 7 -150 0 -103 3 -127 11 -107 17 39 10 229
-9 254 -13 17 -14 18 -9 3z"/>
<path d="M3080 1793 c-18 -41 -19 -48 -5 -69 8 -13 22 -21 32 -19 10 2 22 4
26 4 4 1 19 13 32 27 23 25 23 28 10 55 -15 27 -43 49 -64 49 -5 0 -19 -21
-31 -47z"/>
<path d="M3272 1816 c-61 -40 -29 -70 58 -54 53 10 90 35 90 62 0 22 -111 16
-148 -8z"/>
<path d="M7558 1709 c-15 -8 -18 -24 -18 -82 0 -110 42 -161 115 -143 25 6 25
7 25 121 l0 115 -52 0 c-29 0 -61 -5 -70 -11z"/>
<path d="M3047 1699 c-9 -6 -26 -8 -36 -4 -11 3 -23 0 -27 -7 -4 -6 -2 -14 4
-16 22 -7 13 -22 -13 -22 -14 0 -25 -4 -25 -10 0 -16 50 -12 56 5 4 9 19 15
35 15 39 0 61 19 43 37 -15 15 -14 15 -37 2z"/>
<path d="M3457 1696 c-10 -25 -9 -68 2 -62 13 8 19 39 11 60 -6 18 -7 18 -13
2z"/>
<path d="M7231 1694 c0 -11 3 -14 6 -6 3 7 2 16 -1 19 -3 4 -6 -2 -5 -13z"/>
<path d="M3140 1659 c0 -11 -9 -33 -21 -47 l-20 -27 21 -9 c16 -7 31 -5 58 10
70 37 78 55 32 79 -42 22 -70 20 -70 -6z"/>
<path d="M3348 1671 c-2 -3 -20 -15 -40 -25 -49 -25 -50 -46 -3 -46 40 0 76
20 98 54 14 21 14 22 -19 23 -18 1 -34 -2 -36 -6z"/>
<path d="M7239 1594 c-3 -33 0 -50 6 -47 6 2 9 20 7 41 -6 59 -9 61 -13 6z"/>
<path d="M6927 1308 c-14 -11 -87 -206 -87 -233 0 -15 226 -20 235 -5 4 7 -1
18 -11 25 -61 44 -59 40 -35 62 26 24 96 36 140 23 30 -8 32 -7 47 31 19 46
42 55 117 44 29 -4 118 -8 199 -9 l148 -1 0 27 0 26 -197 1 c-109 0 -261 5
-338 10 -180 14 -198 14 -218 -1z"/>
<path d="M0 1115 l0 -55 51 0 c47 0 50 1 44 21 -4 13 -2 25 5 29 32 19 -20 60
-76 60 -22 0 -24 -3 -24 -55z"/>
<path d="M6038 986 c-8 -8 -23 -16 -34 -18 -10 -2 -20 -12 -22 -22 -2 -10 0
-16 5 -13 9 6 8 -67 -1 -81 -11 -18 17 -82 35 -82 10 0 21 -5 24 -10 4 -6 21
-8 38 -5 18 4 66 2 108 -3 74 -9 129 -6 129 7 0 3 -18 25 -40 49 -22 24 -40
46 -40 51 0 4 15 14 33 23 l32 15 -40 41 c-23 23 -57 44 -80 51 -56 15 -131
14 -147 -3z m-8 -105 c0 -5 -7 -11 -15 -15 -15 -5 -20 5 -8 17 9 10 23 9 23
-2z"/>
<path d="M3644 935 c-50 -13 -125 -29 -165 -35 -41 -7 -88 -14 -106 -17 -37
-6 -39 -13 -47 -193 -6 -135 -42 -343 -68 -399 l-21 -44 24 -18 c69 -51 64
-36 48 -138 l-15 -91 279 0 c216 0 278 3 275 12 -3 7 -13 13 -24 13 -29 1
-104 27 -99 35 2 4 -15 15 -38 25 -23 10 -56 24 -72 31 -61 26 -220 74 -246
74 -19 0 -29 7 -34 22 -12 37 -14 68 -5 68 5 0 7 31 5 70 -5 72 9 101 29 65
19 -32 58 -75 67 -75 5 0 10 24 10 53 1 28 2 93 3 142 l1 90 41 -3 c23 -2 44
1 48 6 3 5 -3 25 -13 45 -10 21 -22 49 -25 63 -7 26 -6 27 29 21 50 -8 63 -1
71 39 3 18 11 37 18 42 6 5 51 12 100 16 48 3 92 9 97 12 13 8 11 68 -3 82
-17 17 -61 14 -164 -13z m-249 -765 c13 -5 14 -9 5 -9 -8 0 -24 4 -35 9 -13 5
-14 9 -5 9 8 0 24 -4 35 -9z"/>
<path d="M5332 135 c-27 -27 -85 -64 -137 -90 l-90 -44 190 0 190 0 -25 20
c-18 15 -35 20 -63 17 -28 -3 -35 -1 -25 7 19 15 12 89 -8 81 -11 -4 -9 3 6
24 30 43 17 37 -38 -15z"/>
</g>
</svg>
